<svg width="605.375px" height="246.79999999999998px" xmlns="http://www.w3.org/2000/svg" viewBox="-52.6875 -48.39999999999999 605.375 246.79999999999998" style="background: rgba(0, 0, 0, 0);" preserveAspectRatio="xMidYMid"><defs><filter id="editing-hole" x="-100%" y="-100%" width="300%" height="300%"><feFlood flood-color="#000" result="black"></feFlood><feMorphology operator="dilate" radius="2" in="SourceGraphic" result="erode"></feMorphology><feGaussianBlur in="erode" stdDeviation="4" result="blur"></feGaussianBlur><feOffset in="blur" dx="2" dy="2" result="offset"></feOffset><feComposite operator="atop" in="offset" in2="black" result="merge"></feComposite><feComposite operator="in" in="merge" in2="SourceGraphic" result="inner-shadow"></feComposite></filter></defs><g filter="url(#editing-hole)"><g transform="translate(37.214985847473145, 136.48999977111816)"><path d="M62.21-22.02L62.21-22.02L62.21-22.02Q64.92-18.59 64.92-11.94L64.92-11.94L64.92-11.94Q64.92-5.29 59.85-1.22L59.85-1.22L59.85-1.22Q54.77 2.86 45.90 2.86L45.90 2.86L45.90 2.86Q40.76 2.86 32.75 1.72L32.75 1.72L32.75 1.72Q17.02-0.72 12.51-0.72L12.51-0.72L12.51-0.72Q8.01-0.72 6.15-0.50L6.15-0.50L6.15-0.50Q4.29-0.29 1.29 0L1.29 0L18.59-94.38L49.91-94.38L35.61-15.73L35.61-15.73Q37.47-15.44 39.18-15.44L39.18-15.44L42.76-15.44L42.76-15.44Q54.77-15.44 62.21-22.02ZM78.65-23.17L78.65-23.17L78.65-23.17Q74.07-26.46 74.07-32.75L74.07-32.75L74.07-32.75Q74.07-36.18 75.79-38.97L75.79-38.97L75.79-38.97Q77.51-41.76 80.94-42.19L80.94-42.19L109.11-42.19L109.11-42.19Q113.83-42.19 115.26-45.05L115.26-45.05L115.26-45.05Q117.55-43.76 118.55-41.04L118.55-41.04L118.55-41.04Q119.55-38.32 119.55-35.46L119.55-35.46L119.55-35.46Q119.55-32.60 117.33-29.82L117.33-29.82L117.33-29.82Q115.12-27.03 111.83-26.74L111.83-26.74L85.66-26.74L85.66-26.74Q82.65-26.74 81.22-25.81L81.22-25.81L81.22-25.81Q79.79-24.88 78.65-23.17ZM141.57 0L125.13 0L151.01-94.38L180.90-94.38L187.47-40.47L214.07-94.38L239.10-94.38L241.67-23.74L241.67-23.74Q242.24-9.72 249.11-5.43L249.11-5.43L249.11-5.43Q247.53-2.57 242.96 0.14L242.96 0.14L242.96 0.14Q238.38 2.86 232.30 2.86L232.30 2.86L232.30 2.86Q226.23 2.86 222.65 1.14L222.65 1.14L222.65 1.14Q219.08-0.57 217.07-3.43L217.07-3.43L217.07-3.43Q213.50-8.58 213.50-18.45L213.50-18.45L213.50-62.63L185.33 0L167.60 0L157.59-64.21L141.57 0ZM261.48-4.29L261.48-4.29L261.48-4.29Q258.12-8.01 256.61-13.87L256.61-13.87L256.61-13.87Q255.11-19.73 255.11-29.32L255.11-29.32L255.11-29.32Q255.11-38.90 258.40-47.62L258.40-47.62L258.40-47.62Q261.69-56.34 267.70-62.63L267.70-62.63L267.70-62.63Q279.99-75.79 300.30-75.79L300.30-75.79L300.30-75.79Q307.59-75.79 312.88-73.36L312.88-73.36L337.34-75.79L326.75-20.02L326.75-20.02Q326.33-18.30 326.33-15.16L326.33-15.16L326.33-15.16Q326.33-12.01 328.26-10.01L328.26-10.01L328.26-10.01Q330.19-8.01 333.05-7.72L333.05-7.72L333.05-7.72Q331.62-2.86 326.40 0L326.40 0L326.40 0Q321.18 2.86 315.31 2.86L315.31 2.86L315.31 2.86Q309.45 2.86 305.52 0.64L305.52 0.64L305.52 0.64Q301.59-1.57 300.44-5.29L300.44-5.29L300.44-5.29Q298.16-1.72 293.29 0.57L293.29 0.57L293.29 0.57Q288.43 2.86 281.92 2.86L281.92 2.86L281.92 2.86Q275.42 2.86 270.13 1.14L270.13 1.14L270.13 1.14Q264.84-0.57 261.48-4.29ZM291.65-62.35L291.65-62.35L291.65-62.35Q290.00-59.77 288.57-55.41L288.57-55.41L288.57-55.41Q287.14-51.05 284.78-39.40L284.78-39.40L284.78-39.40Q282.43-27.74 282.43-19.45L282.43-19.45L282.43-19.45Q282.43-11.15 283.71-8.72L283.71-8.72L283.71-8.72Q285.00-6.29 287.29-6.29L287.29-6.29L287.29-6.29Q291.86-6.29 295.22-10.65L295.22-10.65L295.22-10.65Q298.58-15.02 299.87-22.74L299.87-22.74L307.45-64.64L307.45-64.64Q304.45-67.21 300.94-67.21L300.94-67.21L300.94-67.21Q297.44-67.21 295.37-66.07L295.37-66.07L295.37-66.07Q293.29-64.92 291.65-62.35ZM411.70-9.80L411.70-9.80L411.70-9.80Q405.69-3.72 397.47-0.43L397.47-0.43L397.47-0.43Q389.25 2.86 381.10 2.86L381.10 2.86L381.10 2.86Q372.94 2.86 370.08 1.43L370.08 1.43L365.65 25.74L336.62 28.60L356.36-72.93L379.67-75.36L377.81-65.49L377.81-65.49Q383.81-75.65 396.25-75.65L396.25-75.65L396.25-75.65Q410.27-75.65 417.70-66.64L417.70-66.64L417.70-66.64Q424.28-58.49 424.28-46.05L424.28-46.05L424.28-46.05Q424.28-33.61 420.99-24.74L420.99-24.74L420.99-24.74Q417.70-15.87 411.70-9.80ZM379.38-49.91L371.80-8.01L371.80-8.01Q374.80-5.43 378.52-5.43L378.52-5.43L378.52-5.43Q382.24-5.43 384.38-6.86L384.38-6.86L384.38-6.86Q386.53-8.29 388.10-11.15L388.10-11.15L388.10-11.15Q392.39-18.88 395.82-42.33L395.82-42.33L395.82-42.33Q396.83-49.19 396.83-55.91L396.83-55.91L396.83-55.91Q396.83-62.63 395.32-64.78L395.32-64.78L395.32-64.78Q393.82-66.92 390.96-66.92L390.96-66.92L390.96-66.92Q382.24-66.92 379.38-49.91L379.38-49.91Z" fill="#ccc"></path></g></g><style>text {
  font-size: 64px;
  font-family: Arial Black;
  dominant-baseline: central;
  text-anchor: middle;
}</style></svg>